<?xml version="1.0" standalone="no"?>
<!DOCTYPE svg PUBLIC "-//W3C//DTD SVG 20010904//EN"
 "http://www.w3.org/TR/2001/REC-SVG-20010904/DTD/svg10.dtd">
<svg version="1.0" xmlns="http://www.w3.org/2000/svg"
 width="753.000000pt" height="753.000000pt" viewBox="0 0 753.000000 753.000000"
 preserveAspectRatio="xMidYMid meet">
<metadata>
Created by potrace 1.14, written by Peter Selinger 2001-2017
</metadata>
<g transform="translate(0.000000,753.000000) scale(0.100000,-0.100000)"
fill="#000000" stroke="none">
<path d="M3534 7451 c-3 -3 -42 -6 -87 -8 -104 -3 -120 -6 -129 -18 -5 -6 -8
-6 -8 2 0 8 -10 9 -36 1 -20 -5 -42 -7 -50 -4 -8 3 -14 0 -14 -6 0 -7 -4 -7
-13 1 -10 7 -17 7 -24 0 -10 -10 -51 -19 -93 -20 -8 0 -22 -3 -30 -6 -8 -3
-28 -7 -45 -8 -37 -3 -58 -8 -65 -15 -3 -3 -43 -13 -89 -23 -47 -9 -87 -21
-90 -25 -4 -4 -15 -8 -26 -9 -39 -3 -57 -10 -66 -24 -6 -9 -9 -10 -9 -2 0 9
-10 9 -39 -2 -22 -7 -42 -11 -45 -8 -3 4 -6 1 -6 -6 0 -6 -6 -11 -12 -10 -20
2 -58 -12 -58 -22 0 -5 -7 -6 -16 -2 -9 3 -19 1 -23 -6 -4 -7 -18 -13 -29 -14
-12 -1 -22 -5 -22 -9 0 -4 -7 -8 -15 -8 -8 0 -23 -4 -33 -9 -28 -15 -86 -40
-95 -40 -4 0 -28 -12 -52 -27 -25 -14 -45 -23 -45 -18 0 4 -8 0 -17 -8 -10 -9
-28 -19 -40 -22 -13 -4 -23 -12 -23 -18 0 -6 -3 -8 -6 -5 -4 3 -16 1 -28 -5
-11 -7 -24 -11 -28 -10 -5 1 -8 -3 -8 -8 0 -6 -6 -10 -14 -10 -7 0 -25 -9 -38
-20 -14 -10 -28 -16 -32 -13 -3 3 -6 2 -6 -4 0 -6 -14 -16 -30 -22 -16 -5 -30
-15 -30 -20 0 -6 -3 -10 -7 -9 -12 4 -93 -44 -93 -54 0 -5 -4 -7 -8 -4 -5 3
-18 -2 -28 -12 -34 -30 -114 -84 -114 -76 0 4 -9 -4 -21 -17 -11 -13 -24 -24
-28 -24 -7 0 -35 -22 -59 -47 -9 -10 -22 -18 -28 -18 -7 0 -21 -11 -32 -25
-11 -13 -22 -22 -24 -19 -3 3 -17 -9 -31 -26 -14 -16 -30 -30 -36 -30 -5 0
-19 -12 -31 -27 -12 -16 -24 -27 -26 -25 -2 1 -3 0 -1 -2 1 -3 -19 -20 -46
-39 -26 -18 -44 -37 -40 -40 3 -4 0 -7 -9 -7 -8 0 -21 -11 -28 -25 -7 -14 -20
-25 -27 -25 -8 0 -11 -4 -8 -10 3 -5 2 -10 -4 -10 -6 0 -21 -11 -35 -25 -14
-14 -22 -25 -19 -25 3 0 -10 -13 -30 -29 -20 -15 -34 -31 -30 -35 3 -3 1 -6
-6 -6 -7 0 -10 -3 -8 -7 2 -5 -4 -16 -15 -25 -10 -10 -18 -15 -18 -11 0 4 -12
-10 -27 -32 -15 -22 -38 -50 -51 -62 -14 -13 -21 -23 -17 -23 4 0 -2 -8 -13
-19 -12 -10 -22 -22 -22 -27 0 -5 -9 -16 -20 -24 -11 -8 -20 -20 -20 -28 0 -7
-7 -15 -15 -18 -8 -4 -15 -12 -15 -20 0 -7 -13 -27 -29 -43 -16 -17 -32 -39
-36 -51 -3 -11 -11 -18 -16 -14 -5 3 -9 2 -8 -3 4 -12 -23 -63 -33 -63 -4 0
-8 -7 -8 -15 0 -8 -4 -15 -10 -15 -5 0 -10 -7 -10 -15 0 -8 -4 -15 -10 -15 -5
0 -10 -7 -10 -15 0 -8 -5 -15 -11 -15 -5 0 -7 -4 -4 -10 3 -5 1 -10 -5 -10 -6
0 -9 -4 -5 -10 3 -5 -2 -18 -12 -28 -10 -10 -27 -34 -37 -53 -22 -38 -21 -36
-31 -66 -4 -13 -12 -23 -17 -23 -5 0 -7 -4 -4 -9 3 -5 -1 -14 -9 -21 -8 -7
-15 -18 -15 -25 0 -15 -31 -77 -43 -86 -4 -3 -9 -16 -10 -27 -1 -12 -5 -22 -9
-22 -4 0 -8 -5 -8 -12 0 -11 -29 -81 -51 -121 -5 -10 -7 -22 -4 -27 4 -6 1
-10 -5 -10 -6 0 -8 -4 -5 -10 3 -5 1 -10 -5 -10 -7 0 -10 -7 -6 -15 3 -8 1
-15 -5 -15 -6 0 -9 -7 -5 -15 3 -8 1 -15 -4 -15 -6 0 -10 -9 -10 -20 0 -11 -4
-20 -10 -20 -5 0 -7 -7 -4 -15 4 -8 1 -15 -5 -15 -6 0 -8 -7 -5 -15 4 -8 1
-15 -5 -15 -6 0 -8 -7 -5 -15 4 -8 2 -15 -3 -15 -9 0 -11 -6 -15 -50 -1 -11
-6 -20 -10 -20 -4 0 -5 -9 -3 -20 2 -11 0 -20 -4 -20 -8 0 -19 -44 -24 -97 -1
-11 -5 -19 -9 -16 -8 4 -12 -19 -9 -44 1 -7 -2 -13 -7 -13 -5 0 -8 -14 -7 -30
1 -17 -4 -37 -12 -45 -8 -9 -10 -15 -3 -15 7 0 8 -6 1 -18 -6 -11 -10 -27 -10
-38 0 -10 -5 -39 -11 -64 -6 -25 -13 -65 -16 -90 -2 -25 -6 -61 -9 -80 -10
-64 -17 -134 -18 -190 -1 -30 -6 -58 -12 -62 -6 -5 -6 -8 2 -8 7 0 10 -9 6
-22 -11 -43 -4 -538 8 -538 3 0 6 -21 7 -47 2 -87 13 -157 23 -164 8 -5 8 -9
0 -13 -7 -5 -8 -14 -2 -24 8 -17 22 -93 22 -124 0 -10 4 -20 9 -23 5 -3 7 -12
3 -20 -3 -9 1 -23 8 -32 12 -14 12 -16 -1 -8 -12 7 -13 6 -4 -6 7 -8 15 -30
20 -49 4 -19 9 -42 11 -50 2 -8 5 -21 5 -27 1 -7 6 -13 12 -13 6 0 4 -5 -4
-10 -8 -5 -10 -10 -5 -10 6 0 17 -27 24 -60 8 -33 16 -60 20 -60 4 0 8 -8 9
-17 3 -27 8 -45 21 -78 7 -16 15 -42 18 -57 3 -16 9 -28 14 -28 5 0 8 -3 8 -7
-4 -25 3 -54 16 -67 9 -8 16 -19 16 -23 0 -22 13 -54 25 -64 11 -9 12 -14 4
-19 -8 -5 -7 -12 4 -23 9 -8 16 -22 16 -29 0 -7 7 -22 15 -32 8 -10 12 -23 9
-27 -3 -5 -1 -9 4 -9 9 0 25 -37 23 -52 -1 -5 4 -8 10 -8 5 0 7 -5 4 -10 -3
-6 0 -13 9 -16 8 -3 12 -12 9 -20 -3 -8 -1 -14 3 -14 5 0 16 -15 23 -33 8 -17
21 -38 28 -46 8 -7 12 -19 10 -26 -3 -6 3 -17 13 -23 10 -6 21 -25 25 -42 4
-16 12 -30 20 -30 7 0 16 -12 20 -27 3 -15 10 -30 13 -33 11 -8 106 -155 103
-158 -1 -2 6 -10 16 -18 10 -7 14 -14 9 -14 -5 0 1 -8 12 -19 12 -10 22 -21
22 -25 0 -3 9 -15 20 -26 12 -12 18 -25 15 -30 -4 -6 -1 -10 5 -10 17 0 40
-26 40 -46 0 -10 3 -14 6 -11 8 8 45 -33 40 -42 -3 -4 9 -16 25 -26 16 -11 35
-32 42 -47 6 -16 17 -28 24 -28 6 0 15 -9 18 -20 3 -11 12 -20 20 -20 8 0 16
-8 20 -17 3 -10 21 -29 39 -43 19 -14 32 -28 29 -32 -2 -5 3 -8 12 -8 9 0 13
-4 10 -10 -3 -5 1 -10 9 -10 9 0 16 -4 16 -8 0 -15 37 -52 44 -45 3 3 6 -1 6
-11 0 -9 5 -14 10 -11 6 3 10 0 10 -8 0 -7 11 -20 25 -27 13 -7 22 -16 20 -21
-3 -4 8 -13 24 -20 16 -7 27 -17 25 -21 -3 -4 1 -8 9 -8 7 0 20 -11 27 -25 7
-13 17 -22 21 -19 7 4 20 -6 88 -69 17 -15 35 -27 41 -27 6 0 13 -7 16 -15 3
-8 15 -17 26 -21 11 -3 29 -13 40 -23 11 -9 29 -24 40 -33 11 -10 29 -20 39
-23 11 -4 19 -11 19 -17 0 -6 3 -9 6 -5 4 3 12 1 20 -6 25 -23 39 -32 77 -52
20 -11 37 -23 37 -27 0 -3 10 -10 23 -14 12 -4 37 -17 56 -30 19 -13 38 -21
43 -18 4 3 8 1 8 -4 0 -4 16 -14 35 -22 19 -8 35 -17 35 -22 0 -4 7 -8 15 -8
8 0 15 -5 15 -12 0 -6 3 -8 6 -5 4 3 26 -5 49 -18 23 -14 49 -25 58 -25 10 0
17 -4 17 -10 0 -5 9 -10 19 -10 11 0 23 -5 26 -10 4 -6 10 -8 15 -5 5 3 14 -1
22 -8 11 -12 55 -29 81 -31 4 -1 11 -6 15 -12 4 -6 15 -10 25 -8 9 1 17 -2 17
-7 0 -6 5 -7 10 -4 6 3 10 1 10 -6 0 -6 8 -9 20 -6 11 3 20 2 20 -2 0 -4 19
-13 42 -20 23 -7 53 -18 67 -23 14 -6 33 -12 41 -14 33 -6 46 -10 57 -17 6 -4
23 -8 37 -9 14 -1 26 -6 26 -11 0 -5 9 -7 20 -4 11 3 23 1 26 -5 3 -5 15 -8
25 -5 10 3 19 1 21 -4 2 -5 15 -10 31 -11 15 -1 27 -5 27 -9 0 -3 10 -5 23 -5
12 1 33 -2 47 -7 14 -6 39 -11 57 -12 18 -1 39 -7 47 -14 10 -8 16 -9 21 -1 4
7 12 7 24 0 10 -5 70 -14 132 -21 63 -6 121 -14 129 -18 8 -4 79 -6 158 -6 78
1 142 -1 142 -5 0 -4 15 -6 33 -3 17 2 100 6 182 7 83 2 157 6 166 10 9 4 20
6 25 4 15 -4 238 24 249 32 6 3 22 5 38 4 15 -2 27 1 27 6 0 5 10 7 21 5 12
-3 27 -1 33 3 6 4 20 8 31 8 11 1 31 5 45 9 14 4 32 8 40 9 9 1 20 5 26 9 6 3
27 8 47 11 20 2 42 8 49 12 11 7 41 13 76 16 6 1 12 6 12 11 0 5 7 7 15 3 8
-3 15 -2 15 2 0 4 8 9 18 10 42 5 92 23 92 34 0 5 4 6 10 3 5 -3 19 -1 30 5
12 6 30 13 41 15 11 2 34 11 51 20 17 8 35 15 41 15 5 0 31 11 57 24 37 18 51
21 60 13 7 -7 10 -7 8 -2 -7 13 11 29 37 33 11 2 27 10 35 17 8 7 25 16 38 19
12 4 22 12 22 17 0 6 5 7 10 4 6 -3 23 3 39 14 16 12 36 21 45 21 9 0 16 5 16
11 0 5 5 7 10 4 6 -3 10 -1 10 4 0 6 7 11 15 11 8 0 15 5 15 12 0 6 3 8 7 5 3
-4 15 0 25 10 10 9 18 13 18 9 0 -4 10 2 22 14 12 11 28 20 35 20 7 0 13 5 13
10 0 6 6 10 13 10 8 0 24 9 37 20 12 11 26 17 31 15 4 -3 11 4 14 16 5 16 9
18 15 9 6 -9 10 -7 15 9 3 12 11 18 17 15 6 -4 13 -2 17 3 3 4 52 41 109 82
56 40 102 76 102 81 0 4 14 13 30 20 17 7 28 15 26 18 -3 2 11 17 32 32 20 14
50 41 67 58 16 18 33 32 37 32 12 0 123 114 120 123 -1 4 3 7 9 7 6 0 39 29
74 65 34 36 60 65 57 65 -3 0 7 11 22 25 14 13 26 29 26 35 0 5 7 10 15 10 8
0 15 7 15 15 0 8 5 15 11 15 5 0 7 5 4 10 -3 6 2 10 11 10 10 0 15 3 11 6 -5
5 0 13 51 72 25 30 31 39 49 68 6 10 16 18 22 17 6 -2 10 0 9 5 -3 12 24 62
34 62 4 0 8 7 8 15 0 8 4 15 8 15 9 0 44 57 40 65 -2 4 5 11 15 16 9 6 17 17
17 24 0 8 5 15 10 15 6 0 10 7 10 15 0 7 8 18 18 24 9 5 16 12 15 15 -7 15 -2
26 9 20 8 -5 9 -2 5 10 -4 10 -1 19 8 22 7 3 17 19 20 35 4 16 10 29 14 29 9
0 35 51 33 63 -1 4 3 7 9 7 5 0 7 5 4 10 -3 6 -1 10 4 10 6 0 11 7 11 15 0 8
4 15 9 15 6 0 8 10 6 21 -3 12 -2 19 2 16 8 -9 34 43 28 53 -3 5 1 12 9 17 8
4 16 15 18 23 2 8 15 39 30 69 15 30 25 58 22 63 -3 4 0 8 6 8 6 0 8 5 5 10
-3 6 -1 10 6 10 6 0 9 8 6 20 -3 10 -1 20 3 22 5 2 10 12 12 23 1 11 9 26 16
33 6 7 12 23 12 36 0 12 5 27 12 34 7 7 8 12 4 12 -5 0 -1 12 9 26 10 16 12
23 4 18 -7 -4 -4 6 7 22 11 16 19 39 18 52 -1 12 2 22 5 22 4 0 8 11 9 26 1
14 6 33 11 43 6 10 12 29 15 42 3 13 7 33 10 44 19 73 24 100 20 107 -3 4 0 8
5 8 6 0 11 14 11 30 0 17 5 30 11 30 8 0 8 5 -1 15 -9 11 -9 15 -1 15 7 0 9 4
6 10 -3 5 -3 16 2 22 4 7 6 25 4 40 -1 16 1 28 6 28 5 0 8 15 8 33 -1 17 1 37
4 42 3 6 7 28 8 50 2 22 6 65 9 95 3 30 7 69 7 87 1 17 5 29 10 26 4 -2 7 1 7
6 0 6 -3 11 -8 11 -4 0 -6 28 -4 63 3 79 3 77 -1 107 -2 14 1 31 6 37 6 9 5
13 -4 13 -11 0 -11 2 1 10 8 5 10 10 5 10 -11 0 -12 110 -1 128 3 6 2 13 -3
17 -5 3 -7 15 -5 28 6 25 6 58 0 100 -2 15 1 30 6 33 6 4 6 9 -1 13 -6 4 -13
34 -15 67 -2 32 -5 59 -6 59 -1 0 -4 20 -6 45 -2 25 -5 52 -5 60 -1 8 -6 21
-12 28 -6 8 -5 12 4 12 10 0 10 3 3 8 -7 4 -12 18 -12 32 0 14 -4 43 -10 65
-5 22 -10 47 -10 55 -1 8 -6 33 -12 55 -6 22 -11 50 -11 63 0 12 -3 22 -8 22
-5 0 -9 10 -9 23 -2 29 -6 50 -14 63 -4 6 -10 26 -13 45 -3 18 -9 36 -13 39
-4 3 -7 10 -8 15 -1 30 -17 85 -25 85 -4 0 -6 9 -4 20 2 11 -1 20 -6 20 -6 0
-7 5 -4 10 3 6 1 10 -5 10 -6 0 -10 10 -8 23 2 12 -2 21 -8 20 -7 -1 -11 9
-10 27 1 18 -4 32 -12 35 -8 3 -12 8 -9 12 4 3 1 15 -5 27 -7 11 -13 27 -14
34 -1 7 -12 33 -23 58 -12 24 -21 48 -21 54 0 5 -4 10 -10 10 -5 0 -10 9 -10
20 0 11 -5 20 -11 20 -5 0 -7 5 -4 10 3 6 1 10 -5 10 -6 0 -9 4 -5 9 3 5 1 12
-5 16 -5 3 -10 14 -10 24 0 10 -7 24 -15 31 -8 7 -12 16 -9 21 3 5 1 9 -5 9
-5 0 -15 16 -22 35 -7 19 -17 35 -23 35 -5 0 -6 3 -3 6 4 4 -2 19 -13 34 -11
15 -24 39 -30 54 -5 14 -14 26 -20 26 -6 0 -8 5 -5 10 3 6 2 10 -3 10 -9 0
-25 37 -23 53 1 4 -6 7 -15 7 -8 0 -13 4 -10 9 3 4 -6 21 -19 37 -14 16 -25
35 -25 42 0 6 -5 12 -12 12 -6 0 -9 3 -5 6 3 4 -4 15 -16 25 -12 10 -19 18
-15 19 7 0 -11 25 -39 55 -7 8 -13 21 -13 30 0 9 -4 13 -10 10 -5 -3 -10 -2
-10 3 0 10 -34 54 -77 99 -13 13 -23 27 -23 30 0 4 -7 13 -15 22 -8 9 -26 28
-40 44 -14 15 -24 27 -21 27 2 0 -18 22 -45 49 -27 27 -49 54 -49 61 0 6 -4 8
-10 5 -5 -3 -10 -2 -10 4 0 5 -18 28 -40 51 -22 23 -40 38 -40 33 0 -4 -29 22
-65 60 -36 37 -68 67 -71 67 -3 0 -20 13 -37 29 -68 64 -115 101 -126 101 -6
0 -11 7 -11 16 0 8 -4 12 -10 9 -5 -3 -10 -1 -10 5 0 6 -4 9 -8 6 -5 -3 -15 4
-22 15 -8 10 -20 19 -26 19 -7 0 -15 7 -18 16 -4 9 -13 14 -22 10 -8 -3 -13
-2 -10 3 3 4 -6 14 -19 21 -14 7 -25 17 -25 22 0 4 -7 8 -15 8 -8 0 -15 3 -15
8 0 4 -23 20 -50 35 -28 16 -50 33 -50 38 0 6 -5 7 -12 3 -6 -4 -16 -1 -22 7
-11 14 -65 47 -126 77 -19 9 -37 20 -40 23 -3 4 -27 17 -55 30 -27 12 -53 27
-56 32 -4 5 -11 7 -17 3 -5 -3 -13 1 -16 9 -3 8 -9 14 -13 13 -4 -1 -23 6 -40
15 -18 10 -35 18 -38 18 -24 3 -45 13 -45 21 0 5 -4 6 -10 3 -5 -3 -10 -1 -10
4 0 6 -3 10 -7 9 -15 -3 -63 14 -63 23 0 5 -3 8 -7 8 -22 -4 -43 3 -57 16 -8
9 -19 15 -23 14 -17 -4 -63 14 -63 25 0 6 -5 4 -10 -4 -7 -11 -10 -11 -10 -2
0 7 -4 10 -10 7 -5 -3 -10 -2 -10 4 0 5 -8 8 -17 7 -10 -2 -24 3 -31 11 -8 7
-18 11 -23 7 -6 -3 -16 0 -24 6 -8 7 -15 9 -15 5 0 -4 -7 -2 -15 5 -8 7 -15 9
-15 5 0 -4 -6 -2 -14 4 -8 7 -20 11 -28 10 -7 -1 -25 3 -39 9 -25 10 -55 17
-131 29 -21 3 -38 8 -38 12 0 6 -22 9 -87 13 -13 1 -23 6 -23 10 0 4 -10 8
-22 8 -53 0 -78 5 -78 14 0 5 -3 6 -7 3 -3 -4 -12 -2 -20 4 -9 9 -13 8 -13 0
0 -8 -5 -9 -19 -1 -14 7 -20 7 -23 -2 -3 -8 -9 -6 -19 4 -10 11 -20 13 -36 7
-13 -5 -23 -5 -23 0 0 13 -59 19 -64 7 -3 -7 -5 -7 -5 -1 -1 6 -25 9 -56 9
-30 -1 -55 1 -55 5 0 11 -64 8 -72 -4 -5 -7 -8 -7 -8 0 0 6 -29 11 -70 11 -38
0 -70 -4 -70 -8 0 -4 -5 -8 -11 -8 -5 0 -8 3 -5 8 6 9 -65 9 -80 0 -6 -4 -14
-4 -18 0 -8 8 -114 10 -122 3z"/>
</g>
</svg>
